<svg viewBox="0 0 32 32" xmlns="http://www.w3.org/2000/svg">
  <defs>
    <linearGradient id="logoGradient" x1="0%" y1="0%" x2="100%" y2="100%">
      <stop offset="0%" style="stop-color:#4F46E5;stop-opacity:1" />
      <stop offset="50%" style="stop-color:#2563EB;stop-opacity:1" />
      <stop offset="100%" style="stop-color:#7C3AED;stop-opacity:1" />
    </linearGradient>
  </defs>

  <!-- Background circle -->
  <circle cx="16" cy="16" r="16" fill="url(#logoGradient)"/>

  <!-- Shield shape -->
  <path d="M16 4L8 7v7c0 6.2 4.28 10.86 8 11 4.72-.14 8-4.8 8-11V7l-8-3z" fill="rgba(255,255,255,0.95)"/>

  <!-- P letter -->
  <path d="M12 12h4c1.1 0 2 .9 2 2s-.9 2-2 2h-4v3h-1v-7h1zm0 1v3h4c.55 0 1-.45 1-1s-.45-1-1-1h-4z" fill="#4F46E5" font-weight="bold"/>

  <!-- Accent dot -->
  <circle cx="22" cy="10" r="1.5" fill="rgba(255,255,255,0.8)"/>
</svg>